<?xml version="1.0" standalone="no"?>
<!DOCTYPE svg PUBLIC "-//W3C//DTD SVG 1.1//EN" "http://www.w3.org/Graphics/SVG/1.1/DTD/svg11.dtd" >
<svg xmlns="http://www.w3.org/2000/svg">
<metadata>
This is a custom SVG webfont generated by Font Squirrel.
Copyright   :  The digitally encoded machine readable software for producing the Typefaces licensed to you is copyrighted c 1985 1987 1991 1993 1997 1998 1999 Adobe Systems All Rights Reserved This software is the property of Adobe Systems Incorporated and its licensors and may not be reproduced used displayed modified disclosed or transferred without the express written approval of Adobe  The digitally encoded machine readable outline data for producing the Typefaces licensed to you is copyrighted c 1981 1999 LinotypeHell AG andor its subsidiaries All Rights Reserved This data is the property of LinotypeHell AG andor its subsidiaries and may not be reproduced used displayed modified disclosed or  transferred without the express written approval of LinotypeHell AG  andor its subsidiaries 
</metadata>
<defs>
<font id="HelveticaCondensed" horiz-adv-x="1024" >
<font-face units-per-em="2048" ascent="1638" descent="-410" />
<missing-glyph horiz-adv-x="512" />
<glyph unicode=" "  horiz-adv-x="512" />
<glyph unicode="&#x09;" horiz-adv-x="512" />
<glyph unicode="&#xa0;" horiz-adv-x="512" />
<glyph unicode="!" horiz-adv-x="681" d="M248 0v205h186v-205h-186zM248 1065v471h186v-471l-47 -690h-92z" />
<glyph unicode="&#x22;" horiz-adv-x="512" d="M90 1051v462h107v-462h-107zM317 1051v462h107v-462h-107z" />
<glyph unicode="#" d="M10 520l35 121h221l78 254h-223l35 121h223l162 520h112l-159 -520h180l157 520h115l-160 -520h228l-35 -121h-229l-78 -254h229l-31 -121h-235l-160 -520h-113l160 520h-178l-164 -520h-112l161 520h-219zM381 641h178l78 254h-180z" />
<glyph unicode="$" d="M72 408q0 45 2 67h164v-45q0 -70 6 -116t27.5 -93t69.5 -70.5t122 -23.5v573q-90 41 -142.5 71t-115 81t-91 117.5t-28.5 154.5q0 178 102.5 292t274.5 120v133h86v-133q360 -14 360 -403v-7h-166q-2 61 -5 94t-24.5 78t-60.5 66q-51 18 -90 18h-14v-522q70 -31 96.5 -43 t79.5 -38.5t71.5 -42t53.5 -43t47 -52.5t28.5 -59.5t21.5 -75.5t5 -90q0 -205 -102 -325t-301 -122v-207h-86v207q-391 17 -391 439zM262 1149q0 -100 48 -152.5t153 -103.5v489q-201 -12 -201 -233zM549 127h18q209 0 209 250q0 123 -51 180t-176 111v-541z" />
<glyph unicode="%" horiz-adv-x="1705" d="M113 1147q0 360 284 360q100 0 163 -56t84.5 -133t21.5 -177q0 -199 -60.5 -288t-189.5 -89h-37q-137 12 -201.5 96t-64.5 287zM250 1112q0 -231 139 -231t139 231q0 55 -3 90t-14 86t-43 78t-81 27t-78.5 -27t-41 -78t-14.5 -86t-3 -90zM428 -31l686 1567h105 l-680 -1567h-111zM995 387q0 354 285 354q145 0 206.5 -102t61.5 -258q0 -381 -288 -381h-7q-111 2 -184.5 95t-73.5 292zM1133 346q0 -231 139 -231t139 231q0 55 -3 90t-14.5 86t-43 78t-80.5 27t-79 -27t-41 -78t-14 -86t-3 -90z" />
<glyph unicode="&#x26;" horiz-adv-x="1366" d="M154 410q0 162 77.5 263t237.5 201q-72 94 -108.5 171t-36.5 174q0 131 80.5 224t209.5 93q141 0 231.5 -83t90.5 -222q0 -207 -264 -383l295 -430q49 141 59 287h152q-18 -262 -111 -424l203 -285h-207l-96 141q-141 -174 -363 -174q-207 0 -328.5 121t-121.5 326z M330 408q0 -133 79.5 -212t213.5 -79q137 0 254 143l-334 498q-109 -80 -161 -156.5t-52 -193.5zM479 1237q0 -104 119 -276q82 61 126 122.5t44 147.5q0 70 -38 119t-107 49q-66 0 -105 -48t-39 -114z" />
<glyph unicode="'" horiz-adv-x="512" d="M203 1051v462h106v-462h-106z" />
<glyph unicode="(" horiz-adv-x="681" d="M156 532q0 287 74.5 508.5t242.5 495.5h109q-2 -6 -41 -84t-51.5 -105.5t-45 -108.5t-47 -140.5t-34 -148.5t-27.5 -186t-8 -206q0 -287 60.5 -521.5t203.5 -475.5h-119q-317 517 -317 972z" />
<glyph unicode=")" horiz-adv-x="681" d="M90 1536h119q317 -518 317 -973q0 -287 -74.5 -508t-242.5 -495h-109q2 6 41 83.5t51.5 105.5t45 109t47 140t34 148.5t27.5 186.5t8 206q0 287 -60.5 521t-203.5 476z" />
<glyph unicode="*" d="M197 1280l34 90l232 -90v256h106v-250l228 84l32 -98l-233 -78l156 -197l-84 -65l-160 203l-148 -193l-88 55l154 191z" />
<glyph unicode="+" d="M90 449v143h350v442h144v-442h352v-143h-352v-449h-144v449h-350z" />
<glyph unicode="," horiz-adv-x="512" d="M164 0v205h186v-60q0 -131 -6 -182q-4 -154 -100 -221q-27 -23 -80 -41v92q29 4 47 27q53 57 53 180h-100z" />
<glyph unicode="-" horiz-adv-x="681" d="M92 563v170h498v-170h-498z" />
<glyph unicode="." horiz-adv-x="512" d="M164 0v205h186v-205h-186z" />
<glyph unicode="/" horiz-adv-x="569" d="M-27 -55l498 1591h125l-498 -1591h-125z" />
<glyph unicode="0" d="M94 756q0 76 2 134t11.5 144t26 149.5t47 134.5t73.5 115t109.5 73.5t148.5 29.5q84 0 151.5 -26.5t110.5 -66.5t75 -106.5t47 -124t23.5 -142.5t10.5 -138t2 -135v-41q0 -90 -2 -154.5t-11.5 -153t-25.5 -149.5t-47 -128t-75 -107.5t-109.5 -67.5t-149.5 -27 q-86 0 -152.5 27t-109.5 65.5t-74 107.5t-46 127t-24.5 150.5t-10.5 153t-1 156.5zM270 578q0 -102 7.5 -172t31 -140.5t74.5 -106.5t129 -36q57 0 99 22.5t69 69.5t42 96t22.5 127t9.5 133.5t2 143.5v170q0 98 -7.5 170.5t-30 154.5t-74.5 127t-132 45h-14 q-227 0 -228 -499v-101v-204z" />
<glyph unicode="1" d="M152 1118v133q180 4 264 60.5t100 224.5h133v-1536h-170v1118h-327z" />
<glyph unicode="2" d="M90 0q4 193 62 332q27 63 120 153l293 283q94 90 127 156.5t33 187.5q0 270 -227 270q-92 0 -145.5 -54t-67 -120.5t-13.5 -158.5v-35h-170v94q0 182 99 307q117 121 305 121q193 0 294 -115.5t101 -312.5q0 -158 -57.5 -258t-190.5 -221l-276 -252q-104 -94 -111 -223 h649v-154h-825z" />
<glyph unicode="3" d="M78 428v23h168q-2 -18 -2 -52q0 -276 254 -276q121 0 184 75.5t63 198.5q0 190 -75.5 254t-270.5 64h-14v153q72 0 118 8.5t97 33t76.5 79.5t25.5 141q0 123 -47 187.5t-168 64.5q-131 0 -175 -79.5t-44 -221.5h-162v25q0 195 96.5 312.5t289.5 117.5q172 0 277 -104.5 t105 -276.5q0 -133 -49 -218t-166 -126v-4q129 -29 192.5 -123t63.5 -231q0 -225 -105 -354.5t-327 -129.5q-405 0 -405 459z" />
<glyph unicode="4" d="M57 383v158l574 995h155v-999h138v-154h-138v-383h-170v383h-559zM193 537h423v733h-4z" />
<glyph unicode="5" d="M88 371v30h176v-28q0 -250 228 -250q127 0 186 105.5t59 265.5q0 360 -256 360q-154 0 -215 -139h-151l90 790h653v-153h-516l-68 -451l5 -4q102 111 243 111q199 -2 295 -141.5t96 -346.5q0 -109 -21.5 -202t-67.5 -174t-130 -128t-198 -47q-195 0 -301.5 106 t-106.5 296z" />
<glyph unicode="6" d="M88 682q0 88 2 149.5t11.5 157.5t26.5 164t51 145.5t80 126t119 80t165 31.5q168 0 261 -98.5t97 -268.5h-174q0 213 -205 213q-84 0 -140 -54t-81 -161.5t-32 -170t-11 -171.5q-2 -27 -2 -39h4q43 94 119 141.5t164 47.5q195 0 295 -134t100 -335q0 -242 -114.5 -389.5 t-293.5 -147.5q-119 0 -203.5 46t-129.5 112t-71 170t-32 187t-6 198zM276 475q0 -352 250 -352q236 0 236 373q0 326 -248 325q-238 0 -238 -309v-37z" />
<glyph unicode="7" d="M90 1352v153h844v-141q-442 -600 -506 -1364h-190q90 741 555 1352h-703z" />
<glyph unicode="8" d="M94 440q0 170 89 268.5t202 118.5v4q-244 41 -244 338q0 150 95.5 258.5t293.5 108.5q166 0 261.5 -96.5t95.5 -280.5q0 -127 -57.5 -216t-174.5 -112v-4q137 -23 206 -125t69 -239q0 -217 -100.5 -355.5t-309.5 -138.5t-317.5 123t-108.5 348zM270 446q0 -324 254 -323 q106 0 168 85t62 241q0 131 -58.5 213.5t-183.5 82.5t-183.5 -85t-58.5 -214zM317 1143q0 -244 203 -244q190 0 191 246q0 238 -193 237q-201 0 -201 -231v-8z" />
<glyph unicode="9" d="M88 999q0 242 114.5 389.5t293.5 147.5q119 0 203.5 -46t129.5 -111.5t71 -170t32 -187.5t6 -198q0 -88 -2 -149.5t-11.5 -157.5t-26.5 -163.5t-51 -145.5t-80 -126t-119 -80t-165 -32q-168 0 -261 98.5t-97 268.5h174q0 -213 205 -213q84 0 140 54t81 161.5t32 170 t11 171.5q2 27 2 39h-4q-43 -94 -119 -141.5t-164 -47.5q-195 0 -295 134t-100 335zM264 1030q0 -346 240 -346q133 0 191.5 91t58.5 229q0 94 -18.5 172.5t-78 142t-155.5 63.5q-90 0 -146.5 -58t-74 -131t-17.5 -163z" />
<glyph unicode=":" horiz-adv-x="512" d="M164 0v205h186v-205h-186zM164 915v205h186v-205h-186z" />
<glyph unicode=";" horiz-adv-x="512" d="M164 0v205h186v-60q0 -131 -6 -182q-4 -154 -100 -221q-27 -23 -80 -41v92q29 4 47 27q53 57 53 180h-100zM164 915v205h186v-205h-186z" />
<glyph unicode="&#x3c;" d="M86 455v131l854 475v-150l-694 -391l694 -391v-149z" />
<glyph unicode="=" d="M90 254v143h846v-143h-846zM90 643v143h846v-143h-846z" />
<glyph unicode="&#x3e;" d="M86 -20v149l694 391l-694 391v150l854 -475v-131z" />
<glyph unicode="?" d="M123 1053v30q0 193 101.5 323t303.5 130q188 0 303 -104.5t115 -280.5q0 -96 -30.5 -176t-66.5 -125t-106.5 -122t-111.5 -132q-29 -51 -33 -70q-10 -43 -10 -108v-66h-182q0 160 27.5 231.5t133.5 190.5l80 92q59 76 86 133.5t27 139.5q0 104 -51.5 179t-155.5 75 q-252 0 -252 -328v-12h-178zM406 0v205h186v-205h-186z" />
<glyph unicode="@" horiz-adv-x="1638" d="M74 760q0 322 230.5 549t553.5 227q279 0 485 -178q221 -190 222 -475q0 -201 -125 -377q-160 -225 -361 -225q-59 0 -110 27.5t-68 80.5q-100 -104 -246 -104q-129 0 -207.5 90t-78.5 219q0 141 62.5 283.5t183 243t266.5 100.5q76 0 139 -36t94 -102l29 97h141 l-211 -625q-27 -74 -26 -106q0 -27 17 -43.5t44 -16.5q63 0 134 52.5t114 113.5q104 150 104 336q0 242 -181 393.5t-427 151.5q-283 0 -478.5 -204t-195.5 -487q0 -279 201 -477t477 -198q160 0 307.5 76.5t239.5 209.5h123q-96 -178 -280.5 -282.5t-389.5 -104.5 q-330 0 -556 230.5t-226 560.5zM526 604q0 -80 43 -138t117 -58t135.5 57t100.5 133q106 209 106 350q0 61 -41 105.5t-104 44.5q-150 0 -253.5 -166t-103.5 -328z" />
<glyph unicode="A" horiz-adv-x="1138" d="M23 0l438 1536h225l432 -1536h-188l-121 442h-485l-113 -442h-188zM365 596h405l-199 817h-4z" />
<glyph unicode="B" horiz-adv-x="1138" d="M164 0v1536h459q356 0 370 -381v-25q0 -121 -52 -195.5t-177 -117.5v-4q262 -33 266 -360v-7q0 -217 -111.5 -331.5t-318.5 -114.5h-31h-405zM334 154h274q133 0 189.5 68.5t56.5 219.5v4q0 76 -18.5 129.5t-44 82t-69.5 45t-81 19.5t-92 3h-215v-571zM334 879h151 q10 0 28.5 -1t27.5 -1q139 0 204.5 55t65.5 203v6q0 139 -63.5 190t-239.5 51h-174v-503z" />
<glyph unicode="C" horiz-adv-x="1138" d="M109 786q0 98 6 179.5t22.5 176.5t51 165.5t87 132t134.5 94.5t186 33q205 0 319.5 -132t114.5 -339v-21h-170q-8 338 -276 338q-61 0 -109.5 -25.5t-79 -61.5t-53.5 -95.5t-33 -108.5t-16 -120.5t-7 -111.5t-1 -99q-2 -31 -2 -109q0 -565 301 -565q72 0 123 26.5 t78.5 78.5t42 103.5t22.5 125.5q2 16 5 51t5 53h170q-2 -14 -4 -47t-4 -47q-6 -82 -11 -121t-24.5 -97.5t-54.5 -107.5q-125 -172 -334 -172q-98 0 -176 27.5t-128 69.5t-87 113t-55.5 134.5t-28.5 157.5t-12 159.5t-2 161.5z" />
<glyph unicode="D" horiz-adv-x="1251" d="M168 0v1536h422q160 0 270.5 -56.5t165.5 -159.5t76.5 -216t21.5 -258q0 -14 -1 -39t-1 -39q-4 -127 -16 -225.5t-46 -205t-86 -177t-142.5 -115.5t-210.5 -45h-453zM338 154h272q176 0 257 131t81 424q0 59 -2 90q-4 145 -19.5 241.5t-50 179.5t-100 122.5t-166.5 39.5 h-272v-1228z" />
<glyph unicode="E" d="M152 0v1536h768v-154h-598v-508h561v-153h-561v-567h602v-154h-772z" />
<glyph unicode="F" horiz-adv-x="909" d="M152 0v1536h720v-154h-550v-503h512v-154h-512v-725h-170z" />
<glyph unicode="G" horiz-adv-x="1251" d="M111 778q0 121 9 221.5t42 210t86 184t147 124t223 49.5q213 0 335 -127t122 -340v-10h-172q-4 317 -276 323h-9q-68 0 -121 -23.5t-87.5 -57.5t-59 -91t-37 -105.5t-18.5 -124t-7 -120.5t-1 -119v-55q0 -63 1 -108.5t7 -112t17.5 -112.5t33 -99.5t52 -86t76.5 -56 t104 -25.5h22q82 0 142.5 30.5t93 75.5t53 116t26 132t5.5 141v23h-342v153h512v-800h-132v239h-4q-33 -127 -127 -195.5t-225 -68.5q-94 0 -170 27.5t-127 70.5t-88 111t-57.5 133.5t-31.5 154.5t-14 158.5t-3 159.5z" />
<glyph unicode="H" horiz-adv-x="1251" d="M162 0v1536h170v-641h588v641h170v-1536h-170v741h-588v-741h-170z" />
<glyph unicode="I" horiz-adv-x="569" d="M201 0v1536h170v-1536h-170z" />
<glyph unicode="J" horiz-adv-x="909" d="M43 399q0 18 1 46t1 36h170v-90q0 -51 2 -81.5t11.5 -70.5t27.5 -61.5t53 -38t84 -16.5q61 0 101.5 21.5t58.5 62.5t24.5 83t6.5 101v1145h170v-1157q0 -229 -93.5 -319.5t-269.5 -90.5q-215 0 -293 146q-55 102 -55 284z" />
<glyph unicode="K" horiz-adv-x="1138" d="M162 0v1536h170v-788h4l555 788h213l-490 -643l504 -893h-209l-415 741l-160 -209v-532h-172z" />
<glyph unicode="L" d="M170 0v1536h170v-1382h627v-154h-797z" />
<glyph unicode="M" horiz-adv-x="1593" d="M156 0v1536h301l301 -1198q20 -84 33 -227h4q20 152 39 229l305 1196h299v-1536h-170v1266q0 20 1 63t1 66q0 43 -2 65h-4q-16 -76 -47 -207l-322 -1253h-203l-321 1272q-20 74 -45 188h-4q0 -33 2 -99.5t2 -98.5v-1262h-170z" />
<glyph unicode="N" horiz-adv-x="1251" d="M158 0v1536h276l436 -1257q20 -49 54 -168h4q-4 111 -4 172v1253h170v-1536h-279l-430 1229q-39 109 -57 231h-4q4 -156 4 -235v-1225h-170z" />
<glyph unicode="O" horiz-adv-x="1251" d="M121 801q0 100 6 180t23.5 173t54.5 162.5t91 129t139 90.5t196 31q127 0 221 -46t146.5 -116t84 -174.5t41 -198.5t9.5 -213v-18q0 -145 -9.5 -253t-41 -224.5t-84 -190.5t-147.5 -122t-224 -48t-223.5 48t-147.5 122t-84 191.5t-40 224.5t-11 252zM297 797 q0 -145 7 -243.5t27.5 -186.5t57.5 -139.5t95.5 -81t142.5 -29.5t142 29.5t95 81t57.5 139.5t27.5 186t7 244v14q0 135 -15 237.5t-51 188.5t-103.5 131t-163.5 45q-94 0 -160 -45t-100.5 -131t-50 -188.5t-15.5 -237.5v-14z" />
<glyph unicode="P" horiz-adv-x="1138" d="M176 0v1536h404q254 0 358 -100q125 -117 125 -328q0 -313 -217 -412q-106 -45 -397 -45h-103v-651h-170zM346 805h166q96 0 157.5 10t115 40t78 89.5t24.5 153.5v6q0 164 -86 221t-250 57h-205v-577z" />
<glyph unicode="Q" horiz-adv-x="1251" d="M121 801q0 100 6 180t23.5 173t53.5 162.5t89 129t137 90.5t193 31q111 0 196.5 -31t140 -90.5t90 -129t54 -162.5t25 -173t6.5 -180q0 -80 -7.5 -179.5t-36 -237.5t-75.5 -200l176 -147l-86 -107l-172 144q-49 -49 -135 -80t-172 -31q-129 0 -223.5 48t-147.5 122 t-84 191.5t-40 224.5t-11 252zM297 719q0 -602 315 -602h11q111 4 184 57l-152 121l90 113l144 -115q27 43 48 175t21 253v12q-2 145 -9 242.5t-27.5 186.5t-57.5 140.5t-95 81t-142 29.5t-142.5 -29.5t-95.5 -81t-57.5 -139.5t-27.5 -186t-7 -244v-14z" />
<glyph unicode="R" horiz-adv-x="1251" d="M176 0v1536h395q256 0 386 -89t130 -325v-24q-4 -135 -82.5 -225.5t-211.5 -108.5v-4q147 -14 200.5 -72.5t71.5 -214.5q10 -180 33 -342q20 -96 59 -96v-35h-199q-53 141 -53 391q0 285 -262 285h-297v-676h-170zM346 829h268q297 8 297 275v8q-2 76 -26.5 129t-55 80 t-82 42t-83 17t-78.5 2h-240v-553z" />
<glyph unicode="S" horiz-adv-x="1138" d="M104 487h170v-47q0 -164 61.5 -243.5t229.5 -79.5q133 0 213 68.5t80 199.5q0 49 -4 86t-19.5 64.5t-24.5 44t-40 34t-43 22.5t-57 21.5t-62 22.5q-25 10 -91 33.5t-119.5 45t-90.5 40.5q-102 51 -142 137t-40 211q0 188 120 304t308 116q205 0 321.5 -101.5 t116.5 -296.5q0 -6 -1 -18t-1 -18h-170q0 6 1 15t1 13q0 113 -64.5 182.5t-181.5 69.5q-88 0 -146 -24.5t-84 -69.5t-35 -86t-9 -94q0 -154 145 -209l244 -92q209 -78 276.5 -166t67.5 -248q0 -217 -127 -339t-350 -122q-313 0 -420 244q-27 63 -33 280z" />
<glyph unicode="T" d="M31 1382v154h964v-154h-397v-1382h-170v1382h-397z" />
<glyph unicode="U" horiz-adv-x="1251" d="M166 371v1165h170v-1118q0 -301 291 -301t291 301v1118h169v-1165q0 -201 -122.5 -304.5t-337.5 -103.5t-338 103.5t-123 304.5z" />
<glyph unicode="V" horiz-adv-x="1138" d="M23 1536h188l354 -1413h4l359 1413h188l-442 -1536h-211z" />
<glyph unicode="W" horiz-adv-x="1705" d="M35 1536h188l201 -1059q29 -162 45 -354h4q31 248 49 342l226 1071h210l203 -1059q25 -131 45 -354h4q31 248 50 342l223 1071h188l-360 -1536h-211l-205 1042q-29 137 -45 371h-4q-25 -248 -49 -371l-224 -1042h-211z" />
<glyph unicode="X" horiz-adv-x="1138" d="M35 0l436 788l-424 748h201l321 -600l322 600h201l-422 -748l434 -788h-209l-326 643l-331 -643h-203z" />
<glyph unicode="Y" horiz-adv-x="1138" d="M23 1536h188l358 -770l361 770h188l-465 -940v-596h-170v596z" />
<glyph unicode="Z" d="M57 0v147l725 1235h-706v154h882v-147l-725 -1235h736v-154h-912z" />
<glyph unicode="[" horiz-adv-x="681" d="M205 -428v1964h358v-123h-198v-1714h198v-127h-358z" />
<glyph unicode="\" horiz-adv-x="512" d="M-55 1536h125l497 -1591h-125z" />
<glyph unicode="]" horiz-adv-x="681" d="M119 -301h198v1714h-198v123h358v-1964h-358v127z" />
<glyph unicode="^" d="M143 682l318 854h100l322 -854h-111l-262 692l-258 -692h-109z" />
<glyph unicode="_" d="M0 -154h1024v-102h-1024v102z" />
<glyph unicode="`" horiz-adv-x="681" d="M72 1567h223l182 -289h-137z" />
<glyph unicode="a" horiz-adv-x="909" d="M63 303q0 205 164 277q35 16 120 50t149.5 60.5t72.5 32.5q31 25 31 98v33q0 96 -41 137t-139 41q-100 0 -133 -42t-33 -142v-17h-145v23q0 315 337 315q82 0 142.5 -22.5t91.5 -54t49.5 -74.5t22.5 -71.5t4 -59.5v-699q0 -55 28 -67q25 -4 35 -4q6 0 18.5 1t16.5 1v-119 q-25 -4 -37 -8q-8 0 -23.5 -1t-21.5 -1q-82 0 -115.5 31.5t-44.5 132.5h-4q-31 -78 -101.5 -131.5t-150.5 -53.5q-162 0 -227.5 84t-65.5 250zM231 295q0 -94 34 -141.5t126 -47.5q66 0 131.5 55.5t65.5 176.5v276q-35 -20 -78 -40.5t-97.5 -45t-80.5 -36.5 q-101 -47 -101 -197z" />
<glyph unicode="b" d="M154 0v1536h161v-514h4q92 147 238 147q102 0 177 -48t112 -129t53 -167t16 -182q0 -109 -6 -196t-28.5 -180t-59.5 -155.5t-102.5 -102.5t-153.5 -40q-176 0 -260 166h-4v-135h-147zM305 532q0 -57 1 -90.5t7 -92t21.5 -94.5t39 -74t64.5 -56.5t94 -18.5 q121 0 168.5 119t47.5 365q0 442 -218 442q-61 0 -105 -29.5t-66.5 -71.5t-35 -106.5t-15.5 -112.5t-3 -114v-57v-9z" />
<glyph unicode="c" horiz-adv-x="909" d="M90 555q0 96 7 172t32 163t66 144.5t114.5 96t173.5 38.5q164 0 251 -108.5t87 -274.5v-6h-151q-4 252 -189 252q-76 0 -124 -44t-67.5 -125t-25.5 -143.5t-6 -148.5v-51q0 -76 5 -131t24.5 -128t66.5 -114t121 -41q51 0 88 18.5t56.5 43.5t33 68t17.5 76.5t6 84.5h153 q-6 -186 -85.5 -307t-256.5 -121q-100 0 -173.5 34t-115.5 86t-68 133t-33 158t-7 175z" />
<glyph unicode="d" d="M98 518v103q0 246 87 397t255 151q84 0 143.5 -34.5t118.5 -112.5h5v514h161v-1536h-155v150h-4q-51 -100 -112.5 -140.5t-164.5 -40.5q-334 0 -334 549zM262 575q0 -76 2 -121.5t8.5 -107t21.5 -98.5t39.5 -73t64.5 -52.5t94 -16.5q78 0 129 60.5t68.5 132.5t17.5 147 v142q0 53 -1 89t-7.5 94t-21.5 98t-38 81t-62.5 61.5t-91.5 20.5q-109 0 -166 -103.5t-57 -353.5z" />
<glyph unicode="e" horiz-adv-x="909" d="M88 571q0 80 8 155t34 159t64.5 144.5t105.5 100t153 39.5q98 0 167.5 -37.5t103.5 -79.5t54.5 -137.5t23.5 -140.5t5 -162q2 -39 2 -57h-553v-72q0 -377 205 -377q98 0 144 69t46 169q0 4 -1 16.5t-1 18.5h152v-27q0 -166 -89 -274.5t-255 -108.5q-174 0 -271.5 138 t-97.5 464zM256 688h385q0 4 -2 46t-3 52.5t-4 49t-9.5 52t-15.5 43.5t-22.5 43t-31.5 29.5t-43 22.5t-55 6q-45 0 -79 -14t-55.5 -47t-34 -58.5t-18.5 -77t-8 -73t-4 -74.5z" />
<glyph unicode="f" horiz-adv-x="569" d="M25 1001v138h163v96q0 162 41 219q59 86 220 86q25 0 81 -4v-137q-49 4 -63 4q-66 0 -90.5 -30t-24.5 -113v-121h178v-138h-178v-1001h-162v1001h-165z" />
<glyph unicode="g" d="M92 578q0 102 15.5 195t51.5 188.5t111.5 151.5t182.5 56q172 0 254 -159h4v129h161v-1002q0 -119 -16 -200.5t-70 -165.5q-100 -158 -313 -158q-143 0 -233 68.5t-107 209.5h158q20 -141 178 -141q66 0 112 22.5t70.5 53.5t36.5 80t15.5 85t3.5 87v55h-5 q-94 -164 -245 -164q-365 1 -365 609zM260 569q0 -225 47 -344t160 -119q57 0 101 22t70 63.5t41 82.5t22.5 106.5t8.5 103.5t1 102v8q0 438 -228 438q-223 0 -223 -463z" />
<glyph unicode="h" d="M150 0v1536h161v-522h4q117 156 281 155q131 0 206 -72.5t75 -217.5v-879h-162v834q0 199 -170 198q-92 0 -160 -63q-74 -68 -74 -207v-762h-161z" />
<glyph unicode="i" horiz-adv-x="454" d="M147 0v1139h162v-1139h-162zM147 1331v205h162v-205h-162z" />
<glyph unicode="j" horiz-adv-x="454" d="M27 -240h18q76 0 90 31q18 35 19 98v1250h161v-1184q0 -199 -60 -271.5t-228 -72.5v149zM154 1331v205h161v-205h-161z" />
<glyph unicode="k" horiz-adv-x="909" d="M141 0v1536h162v-928h4l389 531h193l-352 -443l362 -696h-188l-285 567l-123 -161v-406h-162z" />
<glyph unicode="l" horiz-adv-x="454" d="M147 0v1536h162v-1536h-162z" />
<glyph unicode="m" horiz-adv-x="1593" d="M156 0v1139h155v-146h4q43 78 115 127t156 49q88 0 159.5 -48t110.5 -132q63 92 133 136t172 44q121 0 209 -79q70 -66 70 -244v-846h-162v834q0 102 -38 150t-136 48q-88 -4 -152 -63q-74 -68 -73 -207v-762h-162v834q0 199 -170 198q-92 0 -160 -63q-45 -41 -57.5 -87 t-12.5 -120v-762h-161z" />
<glyph unicode="n" d="M150 0v1139h157v-125h4q123 156 285 155q131 0 206 -72.5t75 -217.5v-879h-162v834q0 199 -170 198q-92 0 -160 -63q-74 -68 -74 -207v-762h-161z" />
<glyph unicode="o" d="M104 608q0 266 101.5 413.5t306.5 147.5t306.5 -147.5t101.5 -413.5q0 -352 -103.5 -495.5t-304.5 -143.5q-199 0 -303.5 144.5t-104.5 494.5zM272 557q0 -219 53.5 -335t186.5 -116q135 0 187.5 115t52.5 336q0 256 -55.5 365.5t-184.5 109.5q-125 0 -182.5 -109.5 t-57.5 -365.5z" />
<glyph unicode="p" d="M147 -385v1524h156v-127h4q70 147 236 157q102 0 179 -48t117 -128t58 -167t18 -181q0 -676 -364 -676q-145 0 -238 150h-4v-504h-162zM309 545q0 -45 1 -76t5 -81t12.5 -85t25 -75t39 -64.5t57 -41t77.5 -16.5q121 0 171.5 121t50.5 363q0 442 -224 442q-51 0 -89 -21.5 t-60.5 -63.5t-36.5 -83t-20.5 -102.5t-7.5 -98t-1 -92.5v-26z" />
<glyph unicode="q" d="M113 553v59q0 100 17 193.5t55 177.5t106.5 135t159.5 51q172 0 262 -147h4v117h155v-1516h-161v502h-4q-55 -82 -111.5 -119t-130.5 -37q-352 0 -352 584zM279 594q0 -12 1 -37t1 -37q2 -92 12 -159.5t31.5 -129t64.5 -93.5t104.5 -32t104.5 33t64.5 76t33 113.5 t13.5 115.5t2 111v45q0 63 -2 107.5t-13.5 111t-33 108.5t-62.5 73.5t-100 31.5q-221 0 -221 -438z" />
<glyph unicode="r" horiz-adv-x="681" d="M166 0v1139h156v-187h4q47 102 115.5 151.5t172.5 49.5q29 0 45 -2v-160q-37 6 -67 6q-125 0 -194.5 -84t-69.5 -223v-690h-162z" />
<glyph unicode="s" horiz-adv-x="909" d="M88 307v25h154v-23q0 -100 45 -151.5t147 -51.5q217 0 217 193q0 47 -16.5 81t-50 55.5t-63 33.5t-79 28.5t-71.5 26.5q-150 55 -214.5 121t-64.5 203q0 145 92 233t242 88q352 0 352 -325v-10h-157v22q0 90 -42 133t-139 43q-180 0 -180 -172q0 -43 11.5 -73.5t41 -53 t47 -33t67.5 -29t65 -24.5q18 -8 68 -29.5t69.5 -30.5t58.5 -32t55.5 -42t38 -48t29.5 -64.5t8 -81.5q0 -160 -103.5 -255t-275.5 -95h-14q-82 0 -157.5 30t-116.5 89q-64 86 -64 219z" />
<glyph unicode="t" horiz-adv-x="569" d="M18 1001v138h158v309h160v-309h190v-138h-188v-804q0 -18 4 -29.5t21.5 -21t50.5 -9.5h108v-137h-192q-76 0 -115 37t-39 149v815h-158z" />
<glyph unicode="u" d="M158 260v879h161v-885q0 -76 32 -112t114 -36q125 0 194 101q47 74 48 201v731h161v-1139h-161v150h-5q-41 -86 -113.5 -133.5t-156.5 -47.5q-274 0 -274 291z" />
<glyph unicode="v" horiz-adv-x="909" d="M27 1139h168l258 -1002h4l258 1002h168l-342 -1139h-176z" />
<glyph unicode="w" horiz-adv-x="1366" d="M39 1139h168l207 -1002h4l180 1002h168l192 -1002h5l198 1002h168l-285 -1139h-167l-193 1001h-4l-180 -1001h-168z" />
<glyph unicode="x" horiz-adv-x="909" d="M18 0l349 586l-328 553h168l254 -410l252 410h168l-328 -553l340 -586h-168l-266 455l-273 -455h-168z" />
<glyph unicode="y" horiz-adv-x="909" d="M10 1139h168l256 -987h4l264 987h168l-338 -1088q-70 -229 -104 -291q-84 -150 -260 -149q-57 0 -117 18v144q55 -25 121 -25q43 0 73.5 11.5t50 38t30 46t25 64.5t22.5 65z" />
<glyph unicode="z" horiz-adv-x="796" d="M49 0v127l529 879h-506v133h673v-133l-528 -873h533v-133h-701z" />
<glyph unicode="{" horiz-adv-x="561" d="M14 672v4q82 8 138 59q47 49 47 139v396q0 156 86 213q53 37 109.5 45t150.5 8v-4q-106 -29 -144.5 -81t-38.5 -144v-383q0 -109 -41.5 -167.5t-162.5 -80.5v-4q125 -27 164.5 -93.5t39.5 -189.5v-354q0 -88 40 -141.5t143 -83.5v-5h-35q-180 0 -245.5 69t-65.5 232v361 q0 109 -66 154q-45 33 -119 51z" />
<glyph unicode="|" horiz-adv-x="512" d="M190 -512v2048h132v-2048h-132z" />
<glyph unicode="}" horiz-adv-x="561" d="M16 -190q106 29 144.5 81t38.5 144v383q0 109 42 167t162 81v4q-125 27 -164.5 93t-39.5 189v355q0 88 -40 141t-143 84v4h35q180 0 245.5 -68.5t65.5 -232.5v-361q0 -109 66 -153q45 -33 119 -51v-4q-82 -8 -137 -60q-47 -49 -48 -139v-395q0 -156 -86 -213 q-53 -37 -109 -45.5t-151 -8.5v5z" />
<glyph unicode="~" d="M90 438q49 109 104.5 175.5t135.5 66.5q70 0 196 -72q139 -72 174 -71q90 0 166 170l70 -97q-100 -227 -238 -227q-47 0 -227 90q-98 51 -141 51q-41 0 -77 -32.5t-51.5 -63.5t-41.5 -88z" />
<glyph unicode="&#xa1;" horiz-adv-x="681" d="M248 104l47 691h92l47 -691v-471h-186v471zM248 965v204h186v-204h-186z" />
<glyph unicode="&#xa2;" d="M119 543q0 508 264 579q57 16 129 17q29 0 55 -6l54 233h102l-59 -260q139 -63 170 -215q16 -68 18 -129h-160q-8 152 -61 199l-191 -846q18 -8 66 -9q49 0 86 18.5t56.5 42t31.5 66.5t16 74t9 82h151v-10q0 -18 -10 -90q-25 -156 -105 -236q-37 -37 -102.5 -60.5 t-122.5 -23.5t-106 13l-60 -263h-98l65 293q-59 31 -100 84q-98 160 -98 447zM287 489q0 -217 67 -311l185 823q-12 4 -41 5q-86 0 -126 -53.5t-59 -145.5q-26 -123 -26 -318z" />
<glyph unicode="&#xa3;" d="M61 94q117 96 178.5 189.5t61.5 220.5q0 88 -45 188h-195v90h154q-109 199 -109 344q0 141 72 244q119 166 367 166q176 0 285.5 -96.5t123.5 -270.5q4 -45 4 -69q0 -20 -2 -31h-170v33q0 57 -4 80q-33 201 -250 200q-125 0 -187 -75.5t-62 -200.5q0 -131 106 -324h336 v-90h-297q2 -4 7 -16t7 -19q23 -51 23 -116q0 -223 -234 -410l5 -4q68 43 145 55q37 6 74 6q49 0 84 -8q29 -10 84 -22.5t73 -18.5q31 -8 62 -8q84 0 178 68l57 -138q-70 -51 -119 -66t-137 -15q-27 0 -69.5 11t-95 27.5t-74.5 22.5q-59 12 -117 12q-102 0 -236 -84z" />
<glyph unicode="&#xa4;" d="M49 614q0 172 88 310l-80 88l97 108l79 -88q121 100 285 101q139 0 268 -101l82 88l97 -108l-78 -88q86 -145 86 -320q0 -145 -86 -293l78 -86l-97 -108l-82 88q-125 -102 -284 -103q-135 0 -269 103l-79 -88l-97 108l80 86q-88 143 -88 303zM197 614q0 -152 89 -258 t220 -106q137 0 228 106.5t91 264.5q0 147 -87 255.5t-214 108.5h-6h-6q-141 0 -228 -105.5t-87 -265.5z" />
<glyph unicode="&#xa5;" d="M-35 1536h205l342 -770l356 770h193l-473 -940v-59h282v-91h-282v-155h282v-90h-282v-201h-168v201h-283v90h283v155h-283v91h283v59z" />
<glyph unicode="&#xa6;" horiz-adv-x="512" d="M190 -358v716h132v-716h-132zM190 666v716h132v-716h-132z" />
<glyph unicode="&#xa7;" d="M72 618q0 209 231 320q-143 92 -143 266q0 152 102.5 242t259.5 90q164 0 255 -95t91 -259v-6h-168q0 219 -198 219q-78 0 -129 -47.5t-51 -124.5v-21q0 -55 42 -98t226 -168q27 -18 87 -57t88 -58.5t72 -56.5t64.5 -67.5t36.5 -76t16 -96.5q0 -109 -57 -186.5 t-162 -153.5q147 -111 148 -264q0 -168 -104.5 -257t-289.5 -89q-166 0 -263 100.5t-97 264.5v18h166q4 -246 219 -246q90 0 147.5 47t57.5 136q0 84 -65.5 148t-295.5 212q-168 106 -227 183t-59 181zM236 645q0 -39 6 -58.5t38.5 -56t104.5 -90.5l-2 -2q102 -61 256 -174 q49 39 76.5 64.5t51.5 70.5t24 97q0 57 -41 107t-175 145q-166 113 -176 118q-55 -39 -79.5 -58.5t-54 -63.5t-29.5 -93v-6z" />
<glyph unicode="&#xa8;" horiz-adv-x="681" d="M106 1331v205h162v-205h-162zM414 1331v205h161v-205h-161z" />
<glyph unicode="&#xa9;" horiz-adv-x="1638" d="M16 768q0 330 235.5 564.5t569.5 234.5q332 0 566.5 -234.5t234.5 -564.5q0 -336 -234.5 -570.5t-566.5 -234.5q-334 0 -569.5 234.5t-235.5 570.5zM137 768q0 -285 200 -485.5t484.5 -200.5t482 199.5t197.5 486.5q0 283 -197.5 481.5t-482 198.5t-484.5 -198.5 t-200 -481.5zM410 774q0 201 119.5 331t320.5 130q147 0 250.5 -82t128.5 -223h-119q-16 94 -89 150.5t-169 56.5q-152 0 -237 -102.5t-85 -258.5q0 -154 88.5 -262t237.5 -108q98 0 171 58t83 157h119q-14 -139 -122 -226.5t-251 -87.5q-199 0 -322.5 133t-123.5 334z" />
<glyph unicode="&#xaa;" horiz-adv-x="614" d="M51 1047q0 121 107 165q23 10 78 30t97 36t48 20q18 14 18 52v26q0 59 -26.5 83t-89.5 24q-68 0 -88.5 -26.5t-20.5 -92.5h-94v10q0 193 221 193q66 0 110 -19.5t61 -50.5t23.5 -53.5t6.5 -46.5v-424q0 -27 18 -37q4 0 11.5 -1t11.5 -1t12 1t10 1v-72q-4 0 -12 -2t-12 -2 h-33q-53 0 -73.5 18.5t-26.5 77.5h-5q-16 -45 -63 -77.5t-98 -32.5q-104 0 -147.5 50.5t-43.5 150.5zM162 1040q0 -57 21.5 -84.5t80.5 -27.5q43 0 85 32.5t42 106.5v166q-20 -10 -166 -74q-63 -27 -63 -119z" />
<glyph unicode="&#xab;" d="M174 575v125l309 314v-170l-204 -209l204 -209v-170zM541 575v125l309 314v-170l-205 -209l205 -209v-170z" />
<glyph unicode="&#xac;" d="M90 643v143h846v-546h-143v403h-703z" />
<glyph unicode="&#xad;" horiz-adv-x="681" d="M92 563v170h498v-170h-498z" />
<glyph unicode="&#xae;" horiz-adv-x="1638" d="M16 768q0 332 235.5 565.5t569.5 233.5q332 0 566.5 -233.5t234.5 -565.5q0 -336 -234.5 -570.5t-566.5 -234.5q-334 0 -569.5 234.5t-235.5 570.5zM137 766q0 -285 200 -484.5t484.5 -199.5t482 198.5t197.5 485.5q0 283 -198.5 482.5t-481.5 199.5 q-285 0 -484.5 -199.5t-199.5 -482.5zM520 317v902h395q150 0 218 -50q47 -27 74.5 -79t27.5 -107v-6q0 -125 -78 -184.5t-205 -61.5l269 -414h-134l-253 414h-199v-414h-115zM635 817h233q53 0 90 5t78 19.5t62.5 50.5t21.5 89q0 90 -63.5 121t-167.5 31h-254v-316z" />
<glyph unicode="&#xaf;" horiz-adv-x="681" d="M20 1346v118h642v-118h-642z" />
<glyph unicode="&#xb0;" horiz-adv-x="819" d="M102 1229v4q0 125 90.5 214t217.5 89t217 -90t90 -217t-90 -217t-217 -90t-217.5 90t-90.5 217zM229 1229q0 -76 52.5 -128t128.5 -52q74 0 127 52t53 128q0 74 -53.5 127t-128.5 53q-72 0 -125.5 -52t-53.5 -124v-4z" />
<glyph unicode="&#xb1;" d="M90 0v143h846v-143h-846zM90 571v144h350v319h144v-319h352v-144h-352v-325h-144v325h-350z" />
<glyph unicode="&#xb2;" horiz-adv-x="614" d="M39 614q4 119 41 199q33 74 74 113l184 164q94 82 94 192q0 147 -131 148q-76 0 -101.5 -50.5t-25.5 -136.5v-20h-127v57q0 109 64 184q78 72 198 72q125 0 190.5 -69.5t65.5 -186.5q0 -94 -36.5 -155.5t-122.5 -133.5l-181 -151q-25 -25 -34 -37t-18 -33.5t-9 -48.5h411 v-107h-536z" />
<glyph unicode="&#xb3;" horiz-adv-x="614" d="M35 870v15h121q-2 -10 -2 -29q0 -70 37.5 -113t115.5 -43q70 0 107 42t37 114q0 104 -42 140t-159 36h-14v115h55q31 0 50 4t39.5 17.5t31 44t10.5 77.5q0 72 -26.5 106t-96.5 34q-74 0 -100.5 -43.5t-26.5 -122.5h-119v12q0 117 62.5 188.5t189.5 71.5 q111 0 179.5 -62.5t68.5 -166.5q0 -162 -139 -205v-4q166 -33 166 -211q0 -135 -69 -213t-212 -78q-264 0 -264 274z" />
<glyph unicode="&#xb4;" horiz-adv-x="681" d="M205 1278l182 289h223l-268 -289h-137z" />
<glyph unicode="&#xb5;" horiz-adv-x="1056" d="M172 -389v1528h162v-793q0 -217 194 -217q190 0 191 258v752h162v-897q0 -61 23.5 -85t84.5 -26v-135q-25 -6 -78 -6q-57 0 -107 31.5t-63 89.5q-51 -135 -202 -136q-158 0 -205 97v-461h-162z" />
<glyph unicode="&#xb6;" horiz-adv-x="901" d="M0 1139q0 182 106 299q55 61 115 78.5t154 19.5h426v-1774h-162v1637h-156v-1637h-161v988h-3q-127 0 -223 116.5t-96 272.5z" />
<glyph unicode="&#xb7;" horiz-adv-x="512" d="M164 418v205h186v-205h-186z" />
<glyph unicode="&#xb8;" horiz-adv-x="681" d="M135 -416l35 82q84 -31 133 -31q70 0 109 48q8 8 8 30q0 57 -55 80q-18 8 -43 8q-31 0 -80 -16l-35 39l129 176h98l-94 -123l4 -4q18 6 49 6q70 0 126 -36t56 -113q0 -98 -73.5 -143.5t-179.5 -45.5h-17q-98 14 -170 43z" />
<glyph unicode="&#xb9;" horiz-adv-x="614" d="M137 1278v88q117 2 171 36t67 134h102v-922h-127v664h-213z" />
<glyph unicode="&#xba;" horiz-adv-x="614" d="M41 1229q0 86 29 180q25 74 89 116t148 42t148.5 -42t89.5 -116q27 -86 26 -180q0 -135 -28 -219q-57 -164 -226 -164q-188 0 -245 164q-31 90 -31 219zM152 1198q0 -131 34.5 -200.5t120.5 -69.5q88 0 121 68.5t33 201.5q0 156 -35 221.5t-119 65.5q-82 0 -118.5 -66.5 t-36.5 -220.5z" />
<glyph unicode="&#xbb;" d="M174 256v170l205 209l-205 209v170l309 -320v-125zM541 256v170l204 209l-204 209v170l309 -320v-125z" />
<glyph unicode="&#xbc;" horiz-adv-x="1536" d="M70 1278v88q117 2 171 36t66 134h103v-922h-127v664h-213zM293 0l926 1536h129l-926 -1536h-129zM903 219v111l367 592h119v-600h77v-103h-77v-219h-123v219h-363zM989 322h277v440h-4z" />
<glyph unicode="&#xbd;" horiz-adv-x="1536" d="M86 1278v88q117 2 171 36t67 134h102v-922h-127v664h-213zM186 0l926 1536h129l-926 -1536h-129zM915 0q4 119 41 199q33 74 74 112l184 164q94 82 95 193q0 147 -131 147q-76 0 -101.5 -50t-25.5 -136v-21h-127v58q0 109 63 184q78 72 199 72q125 0 190.5 -70t65.5 -186 q0 -94 -37 -155.5t-123 -133.5l-180 -152q-25 -25 -34 -37t-18.5 -33.5t-9.5 -48.5h412v-106h-537z" />
<glyph unicode="&#xbe;" horiz-adv-x="1536" d="M43 870v15h121q-2 -10 -2 -29q0 -70 38 -113t115 -43q70 0 107 42t37 114q0 104 -42 140t-159 36h-14v115h55q31 0 50.5 4t40 17.5t30.5 44t10 77.5q0 72 -26.5 106t-96.5 34q-74 0 -100.5 -43.5t-26.5 -122.5h-119v12q0 117 62.5 188.5t189.5 71.5q111 0 179.5 -62.5 t68.5 -166.5q0 -162 -139 -205v-4q166 -33 166 -211q0 -135 -68.5 -213t-212.5 -78q-264 0 -264 274zM322 0l925 1536h129l-925 -1536h-129zM932 219v111l366 592h119v-600h78v-103h-78v-219h-123v219h-362zM1018 322h276v440h-4z" />
<glyph unicode="&#xbf;" d="M78 -4q0 123 39 205t133 187.5t133 164.5q53 78 53 168v72h182q0 -158 -27.5 -229.5t-133.5 -190.5q-63 -68 -97 -111t-65 -112.5t-31 -141.5q0 -104 51.5 -179t155.5 -75q252 0 252 328v12h178v-31q0 -193 -101.5 -322.5t-303.5 -129.5q-188 0 -303 104.5t-115 280.5z M432 940v205h186v-205h-186z" />
<glyph unicode="&#xc0;" horiz-adv-x="1138" d="M23 0l438 1536h225l432 -1536h-188l-121 442h-485l-113 -442h-188zM301 1964h223l183 -289h-138zM365 596h405l-199 817h-4z" />
<glyph unicode="&#xc1;" horiz-adv-x="1138" d="M23 0l438 1536h225l432 -1536h-188l-121 442h-485l-113 -442h-188zM365 596h405l-199 817h-4zM434 1675l182 289h224l-269 -289h-137z" />
<glyph unicode="&#xc2;" horiz-adv-x="1138" d="M23 0l438 1536h225l432 -1536h-188l-121 442h-485l-113 -442h-188zM272 1675l203 289h191l204 -289h-163l-136 193l-135 -193h-164zM365 596h405l-199 817h-4z" />
<glyph unicode="&#xc3;" horiz-adv-x="1138" d="M23 0l438 1536h225l432 -1536h-188l-121 442h-485l-113 -442h-188zM223 1694q8 94 62.5 158.5t146.5 64.5q41 0 146 -37q113 -41 149 -41q35 0 62.5 28.5t31.5 63.5h99q-8 -94 -62.5 -158.5t-146.5 -64.5q-41 0 -146 37q-113 41 -149 41q-35 0 -62.5 -28.5t-31.5 -63.5 h-99zM365 596h405l-199 817h-4z" />
<glyph unicode="&#xc4;" horiz-adv-x="1138" d="M23 0l438 1536h225l432 -1536h-188l-121 442h-485l-113 -442h-188zM336 1729v204h162v-204h-162zM365 596h405l-199 817h-4zM643 1729v204h162v-204h-162z" />
<glyph unicode="&#xc5;" horiz-adv-x="1138" d="M23 0l438 1536h225l432 -1536h-188l-121 442h-485l-113 -442h-188zM360 1821q0 84 62.5 145.5t146.5 61.5q86 0 147.5 -60.5t61.5 -146.5t-61.5 -147.5t-147.5 -61.5q-84 0 -146.5 61.5t-62.5 147.5zM365 596h405l-199 817h-4zM442 1821q0 -49 38 -88t89.5 -39t89 37.5 t37.5 89.5q0 49 -39 87t-88 38t-88 -38t-39 -87z" />
<glyph unicode="&#xc6;" horiz-adv-x="1705" d="M0 0l750 1536h858v-154h-566v-508h527v-153h-527v-567h560v-154h-728v440h-477l-204 -440h-193zM469 594h403v788h-28z" />
<glyph unicode="&#xc7;" horiz-adv-x="1138" d="M109 786q0 98 6 179.5t22.5 176.5t51 165.5t87 132t134.5 94.5t186 33q205 0 319.5 -132t114.5 -339v-21h-170q-8 338 -276 338q-61 0 -109.5 -25.5t-79 -61.5t-53.5 -95.5t-33 -108.5t-16 -120.5t-7 -111.5t-1 -99q-2 -31 -2 -109q0 -565 301 -565q72 0 123 26.5 t78.5 78.5t42 103.5t22.5 125.5q2 16 5 51t5 53h170q-2 -14 -4 -47t-4 -47q-6 -82 -11 -121t-24.5 -97.5t-54.5 -107.5q-117 -162 -307 -170l-68 -88l4 -4q18 6 49 6q70 0 126.5 -36t56.5 -113q0 -98 -74 -143.5t-180 -45.5h-17q-98 14 -170 43l35 82q84 -31 133 -31 q70 0 109 48q8 8 8 30q0 57 -55 80q-18 8 -43 8q-31 0 -80 -16l-35 39l104 143q-98 10 -171.5 50t-117.5 108t-72 136.5t-40 171t-15 173.5t-3 180z" />
<glyph unicode="&#xc8;" d="M152 0v1536h768v-154h-598v-508h561v-153h-561v-567h602v-154h-772zM244 1964h223l182 -289h-137z" />
<glyph unicode="&#xc9;" d="M152 0v1536h768v-154h-598v-508h561v-153h-561v-567h602v-154h-772zM377 1675l182 289h223l-268 -289h-137z" />
<glyph unicode="&#xca;" d="M152 0v1536h768v-154h-598v-508h561v-153h-561v-567h602v-154h-772zM215 1675l203 289h190l205 -289h-164l-135 193l-135 -193h-164z" />
<glyph unicode="&#xcb;" d="M152 0v1536h768v-154h-598v-508h561v-153h-561v-567h602v-154h-772zM279 1729v204h161v-204h-161zM586 1729v204h162v-204h-162z" />
<glyph unicode="&#xcc;" horiz-adv-x="569" d="M16 1964h224l182 -289h-137zM201 0v1536h170v-1536h-170z" />
<glyph unicode="&#xcd;" horiz-adv-x="569" d="M150 1675l182 289h223l-268 -289h-137zM201 0v1536h170v-1536h-170z" />
<glyph unicode="&#xce;" horiz-adv-x="569" d="M-12 1675l202 289h191l205 -289h-164l-135 193l-135 -193h-164zM201 0v1536h170v-1536h-170z" />
<glyph unicode="&#xcf;" horiz-adv-x="569" d="M51 1729v204h162v-204h-162zM201 0v1536h170v-1536h-170zM358 1729v204h162v-204h-162z" />
<glyph unicode="&#xd0;" horiz-adv-x="1251" d="M18 799v153h150v584h422q100 0 180 -23.5t135.5 -61.5t95 -98.5t63 -123t37 -145.5t17.5 -154.5t4 -161.5q0 -768 -501 -768h-453v799h-150zM338 154h272q184 0 260 148.5t76 496.5q0 289 -71.5 436t-264.5 147h-272v-430h305v-153h-305v-645z" />
<glyph unicode="&#xd1;" horiz-adv-x="1251" d="M158 0v1536h276l436 -1257q20 -49 54 -168h4q-4 111 -4 172v1253h170v-1536h-279l-430 1229q-39 109 -57 231h-4q4 -156 4 -235v-1225h-170zM279 1694q8 94 62 158.5t146 64.5q41 0 146 -37q113 -41 149 -41q35 0 62.5 28.5t32.5 63.5h98q-8 -94 -62.5 -158.5 t-146.5 -64.5q-41 0 -145 37q-113 41 -150 41q-35 0 -62.5 -28.5t-31.5 -63.5h-98z" />
<glyph unicode="&#xd2;" horiz-adv-x="1251" d="M121 801q0 100 6 180t23.5 173t54.5 162.5t91 129t139 90.5t196 31q127 0 221 -46t146.5 -116t84 -174.5t41 -198.5t9.5 -213v-18q0 -145 -9.5 -253t-41 -224.5t-84 -190.5t-147.5 -122t-224 -48t-223.5 48t-147.5 122t-84 191.5t-40 224.5t-11 252zM297 797 q0 -145 7 -243.5t27.5 -186.5t57.5 -139.5t95.5 -81t142.5 -29.5t142 29.5t95 81t57.5 139.5t27.5 186t7 244v14q0 135 -15 237.5t-51 188.5t-103.5 131t-163.5 45q-94 0 -160 -45t-100.5 -131t-50 -188.5t-15.5 -237.5v-14zM356 1964h224l182 -289h-137z" />
<glyph unicode="&#xd3;" horiz-adv-x="1251" d="M121 801q0 100 6 180t23.5 173t54.5 162.5t91 129t139 90.5t196 31q127 0 221 -46t146.5 -116t84 -174.5t41 -198.5t9.5 -213v-18q0 -145 -9.5 -253t-41 -224.5t-84 -190.5t-147.5 -122t-224 -48t-223.5 48t-147.5 122t-84 191.5t-40 224.5t-11 252zM297 797 q0 -145 7 -243.5t27.5 -186.5t57.5 -139.5t95.5 -81t142.5 -29.5t142 29.5t95 81t57.5 139.5t27.5 186t7 244v14q0 135 -15 237.5t-51 188.5t-103.5 131t-163.5 45q-94 0 -160 -45t-100.5 -131t-50 -188.5t-15.5 -237.5v-14zM489 1675l183 289h223l-268 -289h-138z" />
<glyph unicode="&#xd4;" horiz-adv-x="1251" d="M121 801q0 100 6 180t23.5 173t54.5 162.5t91 129t139 90.5t196 31q127 0 221 -46t146.5 -116t84 -174.5t41 -198.5t9.5 -213v-18q0 -145 -9.5 -253t-41 -224.5t-84 -190.5t-147.5 -122t-224 -48t-223.5 48t-147.5 122t-84 191.5t-40 224.5t-11 252zM297 797 q0 -145 7 -243.5t27.5 -186.5t57.5 -139.5t95.5 -81t142.5 -29.5t142 29.5t95 81t57.5 139.5t27.5 186t7 244v14q0 135 -15 237.5t-51 188.5t-103.5 131t-163.5 45q-94 0 -160 -45t-100.5 -131t-50 -188.5t-15.5 -237.5v-14zM328 1675l202 289h191l205 -289h-164l-135 193 l-135 -193h-164z" />
<glyph unicode="&#xd5;" horiz-adv-x="1251" d="M121 801q0 100 6 180t23.5 173t54.5 162.5t91 129t139 90.5t196 31q127 0 221 -46t146.5 -116t84 -174.5t41 -198.5t9.5 -213v-18q0 -145 -9.5 -253t-41 -224.5t-84 -190.5t-147.5 -122t-224 -48t-223.5 48t-147.5 122t-84 191.5t-40 224.5t-11 252zM279 1694 q8 94 62 158.5t146 64.5q41 0 146 -37q113 -41 149 -41q35 0 62.5 28.5t32.5 63.5h98q-8 -94 -62.5 -158.5t-146.5 -64.5q-41 0 -145 37q-113 41 -150 41q-35 0 -62.5 -28.5t-31.5 -63.5h-98zM297 797q0 -145 7 -243.5t27.5 -186.5t57.5 -139.5t95.5 -81t142.5 -29.5 t142 29.5t95 81t57.5 139.5t27.5 186t7 244v14q0 135 -15 237.5t-51 188.5t-103.5 131t-163.5 45q-94 0 -160 -45t-100.5 -131t-50 -188.5t-15.5 -237.5v-14z" />
<glyph unicode="&#xd6;" horiz-adv-x="1251" d="M121 801q0 100 6 180t23.5 173t54.5 162.5t91 129t139 90.5t196 31q127 0 221 -46t146.5 -116t84 -174.5t41 -198.5t9.5 -213v-18q0 -145 -9.5 -253t-41 -224.5t-84 -190.5t-147.5 -122t-224 -48t-223.5 48t-147.5 122t-84 191.5t-40 224.5t-11 252zM297 797 q0 -145 7 -243.5t27.5 -186.5t57.5 -139.5t95.5 -81t142.5 -29.5t142 29.5t95 81t57.5 139.5t27.5 186t7 244v14q0 135 -15 237.5t-51 188.5t-103.5 131t-163.5 45q-94 0 -160 -45t-100.5 -131t-50 -188.5t-15.5 -237.5v-14zM391 1729v204h162v-204h-162zM698 1729v204h162 v-204h-162z" />
<glyph unicode="&#xd7;" d="M90 199l322 321l-322 322l103 100l319 -321l324 323l100 -102l-322 -322l322 -321l-102 -101l-322 322l-324 -322z" />
<glyph unicode="&#xd8;" horiz-adv-x="1251" d="M59 -39l156 250q-94 190 -94 596v18q0 119 9 212t41 197.5t85 173.5t148.5 114t224.5 45q229 0 346 -133l123 196l76 -45l-144 -229q106 -188 107 -527v-22q0 -119 -7.5 -212t-27 -194.5t-55 -176t-91 -136t-139.5 -93.5t-192 -32q-233 0 -359 162l-131 -213zM297 803 q4 -260 35 -404l547 879q-72 127 -252 135h-19q-311 0 -311 -596v-14zM367 285q74 -168 264 -168q84 0 142 29.5t95 82t57.5 142.5t28 188t7.5 244q0 236 -41 373z" />
<glyph unicode="&#xd9;" horiz-adv-x="1251" d="M166 371v1165h170v-1118q0 -301 291 -301t291 301v1118h169v-1165q0 -201 -122.5 -304.5t-337.5 -103.5t-338 103.5t-123 304.5zM356 1964h224l182 -289h-137z" />
<glyph unicode="&#xda;" horiz-adv-x="1251" d="M166 371v1165h170v-1118q0 -301 291 -301t291 301v1118h169v-1165q0 -201 -122.5 -304.5t-337.5 -103.5t-338 103.5t-123 304.5zM489 1675l183 289h223l-268 -289h-138z" />
<glyph unicode="&#xdb;" horiz-adv-x="1251" d="M166 371v1165h170v-1118q0 -301 291 -301t291 301v1118h169v-1165q0 -201 -122.5 -304.5t-337.5 -103.5t-338 103.5t-123 304.5zM328 1675l202 289h191l205 -289h-164l-135 193l-135 -193h-164z" />
<glyph unicode="&#xdc;" horiz-adv-x="1251" d="M166 371v1165h170v-1118q0 -301 291 -301t291 301v1118h169v-1165q0 -201 -122.5 -304.5t-337.5 -103.5t-338 103.5t-123 304.5zM391 1729v204h162v-204h-162zM698 1729v204h162v-204h-162z" />
<glyph unicode="&#xdd;" horiz-adv-x="1138" d="M23 1536h188l358 -770l361 770h188l-465 -940v-596h-170v596zM434 1675l182 289h224l-269 -289h-137z" />
<glyph unicode="&#xde;" horiz-adv-x="1138" d="M176 0v1536h170v-217h234q254 0 358 -100q125 -117 125 -328q0 -319 -217 -412q-106 -45 -397 -45h-103v-434h-170zM346 588h166q197 0 286 57t89 242q0 90 -26.5 147.5t-80 85t-112 36.5t-146.5 9h-176v-577z" />
<glyph unicode="&#xdf;" d="M145 0v1102q0 115 15.5 189.5t68.5 146.5q98 129 281 129q164 0 256 -106.5t92 -272.5q0 -227 -162 -303q215 -86 215 -420q0 -127 -23.5 -226.5t-97 -174t-192.5 -74.5h-6q-96 0 -141 30v160q66 -55 143 -55q18 0 29 2q121 29 120 309v17q0 231 -65 299q-12 14 -29.5 23 t-30 15.5t-38 9.5t-33.5 3t-40 1t-34 1v137q121 0 175 56.5t54 175.5q0 115 -51 185.5t-159 70.5q-96 0 -156 -95q-29 -61 -29 -200v-1135h-162z" />
<glyph unicode="&#xe0;" horiz-adv-x="909" d="M63 303q0 205 164 277q35 16 120 50t149.5 60.5t72.5 32.5q31 25 31 98v33q0 96 -41 137t-139 41q-100 0 -133 -42t-33 -142v-17h-145v23q0 315 337 315q82 0 142.5 -22.5t91.5 -54t49.5 -74.5t22.5 -71.5t4 -59.5v-699q0 -55 28 -67q25 -4 35 -4q6 0 18.5 1t16.5 1v-119 q-25 -4 -37 -8q-8 0 -23.5 -1t-21.5 -1q-82 0 -115.5 31.5t-44.5 132.5h-4q-31 -78 -101.5 -131.5t-150.5 -53.5q-162 0 -227.5 84t-65.5 250zM186 1567h224l182 -289h-137zM231 295q0 -94 34 -141.5t126 -47.5q66 0 131.5 55.5t65.5 176.5v276q-35 -20 -78 -40.5t-97.5 -45 t-80.5 -36.5q-101 -47 -101 -197z" />
<glyph unicode="&#xe1;" horiz-adv-x="909" d="M63 303q0 205 164 277q35 16 120 50t149.5 60.5t72.5 32.5q31 25 31 98v33q0 96 -41 137t-139 41q-100 0 -133 -42t-33 -142v-17h-145v23q0 315 337 315q82 0 142.5 -22.5t91.5 -54t49.5 -74.5t22.5 -71.5t4 -59.5v-699q0 -55 28 -67q25 -4 35 -4q6 0 18.5 1t16.5 1v-119 q-25 -4 -37 -8q-8 0 -23.5 -1t-21.5 -1q-82 0 -115.5 31.5t-44.5 132.5h-4q-31 -78 -101.5 -131.5t-150.5 -53.5q-162 0 -227.5 84t-65.5 250zM231 295q0 -94 34 -141.5t126 -47.5q66 0 131.5 55.5t65.5 176.5v276q-35 -20 -78 -40.5t-97.5 -45t-80.5 -36.5 q-101 -47 -101 -197zM319 1278l183 289h223l-268 -289h-138z" />
<glyph unicode="&#xe2;" horiz-adv-x="909" d="M63 303q0 205 164 277q35 16 120 50t149.5 60.5t72.5 32.5q31 25 31 98v33q0 96 -41 137t-139 41q-100 0 -133 -42t-33 -142v-17h-145v23q0 315 337 315q82 0 142.5 -22.5t91.5 -54t49.5 -74.5t22.5 -71.5t4 -59.5v-699q0 -55 28 -67q25 -4 35 -4q6 0 18.5 1t16.5 1v-119 q-25 -4 -37 -8q-8 0 -23.5 -1t-21.5 -1q-82 0 -115.5 31.5t-44.5 132.5h-4q-31 -78 -101.5 -131.5t-150.5 -53.5q-162 0 -227.5 84t-65.5 250zM158 1278l202 289h191l205 -289h-164l-135 192l-135 -192h-164zM231 295q0 -94 34 -141.5t126 -47.5q66 0 131.5 55.5t65.5 176.5 v276q-35 -20 -78 -40.5t-97.5 -45t-80.5 -36.5q-101 -47 -101 -197z" />
<glyph unicode="&#xe3;" horiz-adv-x="909" d="M63 303q0 205 164 277q35 16 120 50t149.5 60.5t72.5 32.5q31 25 31 98v33q0 96 -41 137t-139 41q-100 0 -133 -42t-33 -142v-17h-145v23q0 315 337 315q82 0 142.5 -22.5t91.5 -54t49.5 -74.5t22.5 -71.5t4 -59.5v-699q0 -55 28 -67q25 -4 35 -4q6 0 18.5 1t16.5 1v-119 q-25 -4 -37 -8q-8 0 -23.5 -1t-21.5 -1q-82 0 -115.5 31.5t-44.5 132.5h-4q-31 -78 -101.5 -131.5t-150.5 -53.5q-162 0 -227.5 84t-65.5 250zM109 1296q8 94 62 159t146 65q41 0 146 -37q113 -41 149 -41q35 0 62.5 28.5t32.5 63.5h98q-8 -94 -62.5 -158.5t-146.5 -64.5 q-41 0 -145 37q-113 41 -150 41q-35 0 -62.5 -29t-31.5 -64h-98zM231 295q0 -94 34 -141.5t126 -47.5q66 0 131.5 55.5t65.5 176.5v276q-35 -20 -78 -40.5t-97.5 -45t-80.5 -36.5q-101 -47 -101 -197z" />
<glyph unicode="&#xe4;" horiz-adv-x="909" d="M63 303q0 205 164 277q35 16 120 50t149.5 60.5t72.5 32.5q31 25 31 98v33q0 96 -41 137t-139 41q-100 0 -133 -42t-33 -142v-17h-145v23q0 315 337 315q82 0 142.5 -22.5t91.5 -54t49.5 -74.5t22.5 -71.5t4 -59.5v-699q0 -55 28 -67q25 -4 35 -4q6 0 18.5 1t16.5 1v-119 q-25 -4 -37 -8q-8 0 -23.5 -1t-21.5 -1q-82 0 -115.5 31.5t-44.5 132.5h-4q-31 -78 -101.5 -131.5t-150.5 -53.5q-162 0 -227.5 84t-65.5 250zM221 1331v205h162v-205h-162zM231 295q0 -94 34 -141.5t126 -47.5q66 0 131.5 55.5t65.5 176.5v276q-35 -20 -78 -40.5t-97.5 -45 t-80.5 -36.5q-101 -47 -101 -197zM528 1331v205h162v-205h-162z" />
<glyph unicode="&#xe5;" horiz-adv-x="909" d="M63 303q0 205 164 277q35 16 120 50t149.5 60.5t72.5 32.5q31 25 31 98v33q0 96 -41 137t-139 41q-100 0 -133 -42t-33 -142v-17h-145v23q0 315 337 315q82 0 142.5 -22.5t91.5 -54t49.5 -74.5t22.5 -71.5t4 -59.5v-699q0 -55 28 -67q25 -4 35 -4q6 0 18.5 1t16.5 1v-119 q-25 -4 -37 -8q-8 0 -23.5 -1t-21.5 -1q-82 0 -115.5 31.5t-44.5 132.5h-4q-31 -78 -101.5 -131.5t-150.5 -53.5q-162 0 -227.5 84t-65.5 250zM215 1485q0 84 62.5 145.5t146.5 61.5q86 0 147.5 -60.5t61.5 -146.5t-61.5 -147.5t-147.5 -61.5q-84 0 -146.5 61.5t-62.5 147.5 zM231 295q0 -94 34 -141.5t126 -47.5q66 0 131.5 55.5t65.5 176.5v276q-35 -20 -78 -40.5t-97.5 -45t-80.5 -36.5q-101 -47 -101 -197zM297 1485q0 -49 38 -88t89 -39t89 38t38 89q0 49 -39 87t-88 38t-88 -38t-39 -87z" />
<glyph unicode="&#xe6;" horiz-adv-x="1366" d="M53 276q0 211 148 297q49 29 163.5 69t165.5 63q74 35 74 139q0 94 -43 139t-137 45q-170 0 -170 -186v-15h-154v7q0 80 25 150.5t100.5 127.5t194.5 57q182 0 270 -129q92 125 250 125q92 0 158.5 -33.5t102.5 -85t57.5 -129t26.5 -144t5 -155.5v-65h-532q0 -2 -1 -27.5 t-1 -48.5q0 -227 49 -315q35 -55 141 -56q178 0 182 265h150v-6q0 -170 -82 -283t-248 -113q-109 0 -177.5 44t-113.5 143q-113 -186 -323 -187q-139 0 -210 84t-71 223zM221 281q0 -80 39 -127.5t119 -47.5q115 0 176 84q35 47 35 220v36v166l-117 -55q-139 -66 -176 -96 q-76 -63 -76 -180zM758 686h364v41q0 301 -174 301q-66 0 -105.5 -27.5t-56 -81t-21.5 -99.5t-7 -109v-25z" />
<glyph unicode="&#xe7;" horiz-adv-x="909" d="M90 555q0 96 7 172t32 163t66 144.5t114.5 96t173.5 38.5q164 0 251 -108.5t87 -274.5v-6h-151q-4 252 -189 252q-76 0 -124 -44t-67.5 -125t-25.5 -143.5t-6 -148.5v-51q0 -76 5 -131t24.5 -128t66.5 -114t121 -41q51 0 88 18.5t56.5 43.5t33 68t17.5 76.5t6 84.5h153 q-12 -397 -299 -424l-75 -96l4 -4q18 6 49 6q70 0 126 -36t56 -113q0 -98 -73.5 -143.5t-180.5 -45.5h-16q-98 14 -170 43l35 82q84 -31 133 -31q70 0 108 48q8 8 9 30q0 57 -56 80q-18 8 -43 8q-31 0 -80 -16l-34 39l108 149q-86 8 -149.5 46t-99.5 90.5t-57.5 130 t-27.5 149.5t-6 166z" />
<glyph unicode="&#xe8;" horiz-adv-x="909" d="M88 571q0 80 8 155t34 159t64.5 144.5t105.5 100t153 39.5q98 0 167.5 -37.5t103.5 -79.5t54.5 -137.5t23.5 -140.5t5 -162q2 -39 2 -57h-553v-62q0 -46 1 -73t5 -73t12.5 -74.5t23.5 -63.5t35.5 -54.5t53.5 -34t74 -14.5q98 0 144 69t46 169q0 4 -1 16.5t-1 18.5h152 v-27q0 -166 -89 -274.5t-255 -108.5q-174 0 -271.5 138t-97.5 464zM186 1567h224l182 -289h-137zM256 688h385q0 4 -2 46t-3 52.5t-4 49t-9.5 52t-15.5 43.5t-22.5 43t-31.5 29.5t-43 22.5t-55 6q-45 0 -79 -14t-55.5 -47t-34 -58.5t-18.5 -77t-8 -73t-4 -74.5z" />
<glyph unicode="&#xe9;" horiz-adv-x="909" d="M88 571q0 80 8 155t34 159t64.5 144.5t105.5 100t153 39.5q98 0 167.5 -37.5t103.5 -79.5t54.5 -137.5t23.5 -140.5t5 -162q2 -39 2 -57h-553v-62q0 -46 1 -73t5 -73t12.5 -74.5t23.5 -63.5t35.5 -54.5t53.5 -34t74 -14.5q98 0 144 69t46 169q0 4 -1 16.5t-1 18.5h152 v-27q0 -166 -89 -274.5t-255 -108.5q-174 0 -271.5 138t-97.5 464zM256 688h385q0 4 -2 46t-3 52.5t-4 49t-9.5 52t-15.5 43.5t-22.5 43t-31.5 29.5t-43 22.5t-55 6q-45 0 -79 -14t-55.5 -47t-34 -58.5t-18.5 -77t-8 -73t-4 -74.5zM319 1278l183 289h223l-268 -289h-138z " />
<glyph unicode="&#xea;" horiz-adv-x="909" d="M88 571q0 80 8 155t34 159t64.5 144.5t105.5 100t153 39.5q98 0 167.5 -37.5t103.5 -79.5t54.5 -137.5t23.5 -140.5t5 -162q2 -39 2 -57h-553v-62q0 -46 1 -73t5 -73t12.5 -74.5t23.5 -63.5t35.5 -54.5t53.5 -34t74 -14.5q98 0 144 69t46 169q0 4 -1 16.5t-1 18.5h152 v-27q0 -166 -89 -274.5t-255 -108.5q-174 0 -271.5 138t-97.5 464zM158 1278l202 289h191l205 -289h-164l-135 192l-135 -192h-164zM256 688h385q0 4 -2 46t-3 52.5t-4 49t-9.5 52t-15.5 43.5t-22.5 43t-31.5 29.5t-43 22.5t-55 6q-45 0 -79 -14t-55.5 -47t-34 -58.5 t-18.5 -77t-8 -73t-4 -74.5z" />
<glyph unicode="&#xeb;" horiz-adv-x="909" d="M88 571q0 80 8 155t34 159t64.5 144.5t105.5 100t153 39.5q98 0 167.5 -37.5t103.5 -79.5t54.5 -137.5t23.5 -140.5t5 -162q2 -39 2 -57h-553v-62q0 -46 1 -73t5 -73t12.5 -74.5t23.5 -63.5t35.5 -54.5t53.5 -34t74 -14.5q98 0 144 69t46 169q0 4 -1 16.5t-1 18.5h152 v-27q0 -166 -89 -274.5t-255 -108.5q-174 0 -271.5 138t-97.5 464zM221 1331v205h162v-205h-162zM256 688h385q0 4 -2 46t-3 52.5t-4 49t-9.5 52t-15.5 43.5t-22.5 43t-31.5 29.5t-43 22.5t-55 6q-45 0 -79 -14t-55.5 -47t-34 -58.5t-18.5 -77t-8 -73t-4 -74.5zM528 1331 v205h162v-205h-162z" />
<glyph unicode="&#xec;" horiz-adv-x="454" d="M-41 1567h223l183 -289h-138zM147 0v1139h162v-1139h-162z" />
<glyph unicode="&#xed;" horiz-adv-x="454" d="M92 1278l182 289h224l-269 -289h-137zM147 0v1139h162v-1139h-162z" />
<glyph unicode="&#xee;" horiz-adv-x="454" d="M-70 1278l203 289h191l204 -289h-163l-136 192l-135 -192h-164zM147 0v1139h162v-1139h-162z" />
<glyph unicode="&#xef;" horiz-adv-x="454" d="M-6 1331v205h162v-205h-162zM147 0v1139h162v-1139h-162zM301 1331v205h162v-205h-162z" />
<glyph unicode="&#xf0;" d="M104 608q0 266 101.5 413.5t306.5 147.5q74 0 115 -30l4 4q-49 102 -211 278l-156 -108l-59 63l155 109q-123 123 -133 131l92 86q66 -57 150 -141l145 104l60 -63l-148 -105q393 -399 394 -889q0 -352 -103.5 -495.5t-304.5 -143.5q-199 0 -303.5 144.5t-104.5 494.5z M272 557q0 -219 53.5 -335t186.5 -116q135 0 187.5 115t52.5 336q0 256 -55.5 365.5t-184.5 109.5q-125 0 -182.5 -109.5t-57.5 -365.5z" />
<glyph unicode="&#xf1;" d="M150 0v1139h157v-125h4q123 156 285 155q131 0 206 -72.5t75 -217.5v-879h-162v834q0 199 -170 198q-92 0 -160 -63q-74 -68 -74 -207v-762h-161zM166 1296q8 94 62.5 159t146.5 65q41 0 145 -37q113 -41 150 -41q35 0 62.5 28.5t31.5 63.5h98q-8 -94 -62.5 -158.5 t-146.5 -64.5q-41 0 -145 37q-113 41 -150 41q-35 0 -62.5 -29t-31.5 -64h-98z" />
<glyph unicode="&#xf2;" d="M104 608q0 266 101.5 413.5t306.5 147.5t306.5 -147.5t101.5 -413.5q0 -352 -103.5 -495.5t-304.5 -143.5q-199 0 -303.5 144.5t-104.5 494.5zM244 1567h223l182 -289h-137zM272 557q0 -219 53.5 -335t186.5 -116q135 0 187.5 115t52.5 336q0 256 -55.5 365.5 t-184.5 109.5q-125 0 -182.5 -109.5t-57.5 -365.5z" />
<glyph unicode="&#xf3;" d="M104 608q0 266 101.5 413.5t306.5 147.5t306.5 -147.5t101.5 -413.5q0 -352 -103.5 -495.5t-304.5 -143.5q-199 0 -303.5 144.5t-104.5 494.5zM272 557q0 -219 53.5 -335t186.5 -116q135 0 187.5 115t52.5 336q0 256 -55.5 365.5t-184.5 109.5q-125 0 -182.5 -109.5 t-57.5 -365.5zM377 1278l182 289h223l-268 -289h-137z" />
<glyph unicode="&#xf4;" d="M104 608q0 266 101.5 413.5t306.5 147.5t306.5 -147.5t101.5 -413.5q0 -352 -103.5 -495.5t-304.5 -143.5q-199 0 -303.5 144.5t-104.5 494.5zM215 1278l203 289h190l205 -289h-164l-135 192l-135 -192h-164zM272 557q0 -219 53.5 -335t186.5 -116q135 0 187.5 115 t52.5 336q0 256 -55.5 365.5t-184.5 109.5q-125 0 -182.5 -109.5t-57.5 -365.5z" />
<glyph unicode="&#xf5;" d="M104 608q0 266 101.5 413.5t306.5 147.5t306.5 -147.5t101.5 -413.5q0 -352 -103.5 -495.5t-304.5 -143.5q-199 0 -303.5 144.5t-104.5 494.5zM166 1296q8 94 62.5 159t146.5 65q41 0 145 -37q113 -41 150 -41q35 0 62.5 28.5t31.5 63.5h98q-8 -94 -62.5 -158.5 t-146.5 -64.5q-41 0 -145 37q-113 41 -150 41q-35 0 -62.5 -29t-31.5 -64h-98zM272 557q0 -219 53.5 -335t186.5 -116q135 0 187.5 115t52.5 336q0 256 -55.5 365.5t-184.5 109.5q-125 0 -182.5 -109.5t-57.5 -365.5z" />
<glyph unicode="&#xf6;" d="M104 608q0 266 101.5 413.5t306.5 147.5t306.5 -147.5t101.5 -413.5q0 -352 -103.5 -495.5t-304.5 -143.5q-199 0 -303.5 144.5t-104.5 494.5zM272 557q0 -219 53.5 -335t186.5 -116q135 0 187.5 115t52.5 336q0 256 -55.5 365.5t-184.5 109.5q-125 0 -182.5 -109.5 t-57.5 -365.5zM279 1331v205h161v-205h-161zM586 1331v205h162v-205h-162z" />
<glyph unicode="&#xf7;" d="M90 449v143h846v-143h-846zM430 6v205h162v-205h-162zM430 829v205h162v-205h-162z" />
<glyph unicode="&#xf8;" d="M51 -55l139 202q-86 145 -86 463q0 266 101.5 412.5t306.5 146.5q188 0 293 -129l104 152l58 -47l-117 -170q29 -51 49.5 -155.5t20.5 -209.5q0 -348 -103.5 -494.5t-288.5 -146.5q-195 0 -292 113l-121 -176zM272 559q0 -115 29 -250l404 586q-51 137 -191 137 q-127 0 -184.5 -108.5t-57.5 -364.5zM332 221q55 -115 182 -115q133 0 185.5 116t52.5 337q0 145 -23 242z" />
<glyph unicode="&#xf9;" d="M158 260v879h161v-885q0 -76 32 -112t114 -36q125 0 194 101q47 74 48 201v731h161v-1139h-161v150h-5q-41 -86 -113.5 -133.5t-156.5 -47.5q-274 0 -274 291zM244 1567h223l182 -289h-137z" />
<glyph unicode="&#xfa;" d="M158 260v879h161v-885q0 -76 32 -112t114 -36q125 0 194 101q47 74 48 201v731h161v-1139h-161v150h-5q-41 -86 -113.5 -133.5t-156.5 -47.5q-274 0 -274 291zM377 1278l182 289h223l-268 -289h-137z" />
<glyph unicode="&#xfb;" d="M158 260v879h161v-885q0 -76 32 -112t114 -36q125 0 194 101q47 74 48 201v731h161v-1139h-161v150h-5q-41 -86 -113.5 -133.5t-156.5 -47.5q-274 0 -274 291zM215 1278l203 289h190l205 -289h-164l-135 192l-135 -192h-164z" />
<glyph unicode="&#xfc;" d="M158 260v879h161v-885q0 -76 32 -112t114 -36q125 0 194 101q47 74 48 201v731h161v-1139h-161v150h-5q-41 -86 -113.5 -133.5t-156.5 -47.5q-274 0 -274 291zM279 1331v205h161v-205h-161zM586 1331v205h162v-205h-162z" />
<glyph unicode="&#xfd;" horiz-adv-x="909" d="M10 1139h168l256 -987h4l264 987h168l-338 -1088q-70 -229 -104 -291q-84 -150 -260 -149q-57 0 -117 18v144q55 -25 121 -25q43 0 73.5 11.5t50 38t30 46t25 64.5t22.5 65zM319 1278l183 289h223l-268 -289h-138z" />
<glyph unicode="&#xfe;" d="M147 -385v1921h162v-524h4q33 78 95.5 117.5t134.5 39.5q104 0 179 -45t116 -127t59 -179t18 -216q0 -109 -14 -207t-51 -200.5t-114 -164t-185 -61.5q-145 0 -238 150h-4v-504h-162zM309 571q0 -100 7.5 -171.5t28 -144.5t66.5 -111t115 -38q121 0 171.5 121t50.5 363 q0 442 -224 442q-51 0 -89 -21.5t-60.5 -63.5t-36.5 -83t-20.5 -102.5t-7.5 -98.5t-1 -92z" />
<glyph unicode="&#xff;" horiz-adv-x="909" d="M10 1139h168l256 -987h4l264 987h168l-338 -1088q-70 -229 -104 -291q-84 -150 -260 -149q-57 0 -117 18v144q55 -25 121 -25q43 0 73.5 11.5t50 38t30 46t25 64.5t22.5 65zM221 1331v205h162v-205h-162zM528 1331v205h162v-205h-162z" />
<glyph unicode="&#x152;" horiz-adv-x="1705" d="M115 735v31q2 178 18.5 301t69.5 242q55 123 156.5 190.5t234.5 67.5q176 0 291 -162h4v131h723v-154h-563v-503h526v-154h-526v-571h559v-154h-719v121h-4q-70 -82 -130.5 -119t-148.5 -39h-18q-297 0 -412 324q-61 194 -61 448zM291 727q0 -66 3 -119t11 -131 t29.5 -135t53.5 -111.5t85 -84t123 -29.5q135 0 205.5 82t70.5 278v31v598q0 152 -68.5 229.5t-189.5 77.5q-238 0 -288 -262q-35 -180 -35 -424z" />
<glyph unicode="&#x153;" horiz-adv-x="1478" d="M82 592q0 578 375 577q96 0 179 -41t130 -118q94 160 262 159q90 0 157.5 -34.5t104.5 -84t59.5 -120t28.5 -128t6 -120.5q0 -35 -2 -77t-2 -44h-532l2 -112q0 -47 2 -75t7 -74t18.5 -74.5t33 -59.5t53 -45.5t78.5 -14.5q37 0 66 10.5t47.5 35t30.5 45t20 59.5t11.5 58.5 t9.5 62.5h153q-4 -66 -21.5 -129.5t-52 -130t-101 -107.5t-154.5 -41q-195 0 -291 164q-102 -164 -289 -164q-76 0 -137.5 20.5t-101 53.5t-68.5 84t-45.5 100t-24.5 119t-10 122t-2 124zM250 520q0 -51 2 -87t7 -90t20.5 -91t38 -73t61.5 -54.5t90 -18.5q135 0 174 108 t39 372q0 246 -44 346t-159 100q-53 0 -94 -20.5t-64.5 -60.5t-39 -80t-21.5 -99t-8 -98t-2 -94v-35v-25zM848 694h379q0 10 -2 67.5t-5 80t-14.5 68.5t-29 65.5t-50 38t-79.5 18.5q-45 0 -79 -14t-55.5 -46t-34 -57.5t-18.5 -77t-8 -72t-4 -71.5z" />
<glyph unicode="&#x178;" horiz-adv-x="1138" d="M23 1536h188l358 -770l361 770h188l-465 -940v-596h-170v596zM336 1729v204h162v-204h-162zM643 1729v204h162v-204h-162z" />
<glyph unicode="&#x2c6;" horiz-adv-x="681" d="M43 1278l203 289h190l205 -289h-164l-135 192l-135 -192h-164z" />
<glyph unicode="&#x2dc;" horiz-adv-x="681" d="M-6 1296q8 94 62.5 159t146.5 65q41 0 145 -37q113 -41 150 -41q35 0 62.5 28.5t31.5 63.5h98q-8 -94 -62.5 -158.5t-146.5 -64.5q-41 0 -145 37q-113 41 -150 41q-35 0 -62.5 -29t-31.5 -64h-98z" />
<glyph unicode="&#x3bc;" horiz-adv-x="1056" d="M172 -389v1528h162v-793q0 -217 194 -217q190 0 191 258v752h162v-897q0 -61 23.5 -85t84.5 -26v-135q-25 -6 -78 -6q-57 0 -107 31.5t-63 89.5q-51 -135 -202 -136q-158 0 -205 97v-461h-162z" />
<glyph unicode="&#x2000;" horiz-adv-x="1013" />
<glyph unicode="&#x2001;" horiz-adv-x="2027" />
<glyph unicode="&#x2002;" horiz-adv-x="1013" />
<glyph unicode="&#x2003;" horiz-adv-x="2027" />
<glyph unicode="&#x2004;" horiz-adv-x="675" />
<glyph unicode="&#x2005;" horiz-adv-x="505" />
<glyph unicode="&#x2006;" horiz-adv-x="337" />
<glyph unicode="&#x2007;" horiz-adv-x="337" />
<glyph unicode="&#x2008;" horiz-adv-x="251" />
<glyph unicode="&#x2009;" horiz-adv-x="405" />
<glyph unicode="&#x200a;" horiz-adv-x="112" />
<glyph unicode="&#x2010;" horiz-adv-x="681" d="M92 563v170h498v-170h-498z" />
<glyph unicode="&#x2011;" horiz-adv-x="681" d="M92 563v170h498v-170h-498z" />
<glyph unicode="&#x2012;" horiz-adv-x="681" d="M92 563v170h498v-170h-498z" />
<glyph unicode="&#x2013;" d="M0 563v144h1024v-144h-1024z" />
<glyph unicode="&#x2014;" horiz-adv-x="2048" d="M0 563v144h2048v-144h-2048z" />
<glyph unicode="&#x2018;" horiz-adv-x="454" d="M131 1067l2 203q4 246 191 301v-92q-100 -20 -101 -209h101v-203h-193z" />
<glyph unicode="&#x2019;" horiz-adv-x="454" d="M131 1032v92q100 20 100 209h-100v203h193v-201q0 -246 -193 -303z" />
<glyph unicode="&#x201a;" horiz-adv-x="454" d="M131 2v203h193v-205q0 -242 -193 -299v92q100 20 100 209h-100z" />
<glyph unicode="&#x201c;" horiz-adv-x="796" d="M127 1067l2 203q4 248 190 301v-92q-100 -20 -100 -209h100v-203h-192zM477 1067v203q0 244 193 301v-92q-100 -20 -101 -209h101v-203h-193z" />
<glyph unicode="&#x201d;" horiz-adv-x="796" d="M127 1032v92q100 20 100 209h-100v203h192v-203q1 -244 -192 -301zM477 1032v92q100 20 101 209h-101v203h193l-2 -203q-5 -246 -191 -301z" />
<glyph unicode="&#x201e;" horiz-adv-x="796" d="M127 0v205h192v-205q0 -244 -192 -299v92q100 20 100 207h-100zM477 0v205h193l-2 -205q-4 -244 -191 -299v92q100 20 101 207h-101z" />
<glyph unicode="&#x2022;" horiz-adv-x="681" d="M31 768q0 129 91 222t218 93q129 0 220 -93t91 -222t-91 -221t-220 -92q-127 0 -218 93t-91 220z" />
<glyph unicode="&#x2026;" horiz-adv-x="2048" d="M248 0v205h186v-205h-186zM930 0v205h186v-205h-186zM1612 0v205h186v-205h-186z" />
<glyph unicode="&#x202f;" horiz-adv-x="405" />
<glyph unicode="&#x2039;" horiz-adv-x="569" d="M131 575v125l309 314v-170l-204 -209l204 -209v-170z" />
<glyph unicode="&#x203a;" horiz-adv-x="569" d="M129 256v170l205 209l-205 209v170l309 -320v-125z" />
<glyph unicode="&#x205f;" horiz-adv-x="505" />
<glyph unicode="&#x20ac;" d="M35 860l47 127h111q8 111 35.5 202t80.5 173t146.5 128t218.5 46q233 0 342 -158l-74 -194q-14 82 -117 151q-72 47 -163 47q-72 0 -124.5 -25.5t-82 -62.5t-49 -93t-26.5 -104t-11 -110h499l-47 -127h-459q-2 -25 -2 -104v-39h408l-47 -127h-359l4 -77q1 -26 5 -77 t12 -79.5t21.5 -70.5t36 -66.5t52 -49.5t72.5 -36t97 -11q84 0 167.5 50t112.5 103v-200q-14 -12 -37.5 -29.5t-93.5 -47.5t-135 -30q-119 0 -208 39t-140.5 98.5t-83 145.5t-43 165t-13.5 173h-151l47 127h102q0 6 -1 30.5t-1 40.5q0 14 1 40t1 32h-151z" />
<glyph unicode="&#x2122;" horiz-adv-x="1536" d="M0 1413v123h573v-123h-223v-739h-125v739h-225zM696 674v862h183l200 -608h4l209 608h181v-862h-113v739h-4l-242 -739h-65l-236 739h-4v-739h-113z" />
<glyph unicode="&#xe000;" horiz-adv-x="1140" d="M0 1140h1140v-1140h-1140v1140z" />
<glyph unicode="&#xfb01;" d="M25 1001v138h163v96q0 162 41 219q59 86 220 86q25 0 81 -4v-137q-49 4 -63 4q-66 0 -90.5 -30t-24.5 -113v-121h178v-138h-178v-1001h-162v1001h-165zM709 1331v205h161v-205h-161zM713 0v1139h161v-1139h-161z" />
<glyph unicode="&#xfb02;" d="M25 1001v138h163v96q0 162 41 219q59 86 220 86q25 0 81 -4v-137q-49 4 -63 4q-66 0 -90.5 -30t-24.5 -113v-121h178v-138h-178v-1001h-162v1001h-165zM709 0v1536h161v-1536h-161z" />
<glyph unicode="&#xfb03;" horiz-adv-x="1593" d="M1286 0v1139h162v-1139h-162zM1286 1331v205h162v-205h-162zM594 1001v138h163v96q0 162 41 219q59 86 220 86q25 0 81 -4v-137q-49 4 -63 4q-66 0 -90.5 -30t-24.5 -113v-121h178v-138h-178v-1001h-162v1001h-165zM25 1001v138h163v96q0 162 41 219q59 86 220 86 q25 0 81 -4v-137q-49 4 -63 4q-66 0 -90.5 -30t-24.5 -113v-121h178v-138h-178v-1001h-162v1001h-165z" />
<glyph unicode="&#xfb04;" horiz-adv-x="1593" d="M1286 0v1536h162v-1536h-162zM594 1001v138h163v96q0 162 41 219q59 86 220 86q25 0 81 -4v-137q-49 4 -63 4q-66 0 -90.5 -30t-24.5 -113v-121h178v-138h-178v-1001h-162v1001h-165zM25 1001v138h163v96q0 162 41 219q59 86 220 86q25 0 81 -4v-137q-49 4 -63 4 q-66 0 -90.5 -30t-24.5 -113v-121h178v-138h-178v-1001h-162v1001h-165z" />
</font>
</defs>
</svg>
